<svg width="100" height="100" viewBox="0 0 100 100" fill="none" xmlns="http://www.w3.org/2000/svg">
<rect x="0.05" y="0.05" width="99.9" height="99.9" rx="9.95" fill="#FBEEC1" stroke="black" stroke-width="0.1"/>
<path d="M41.9231 69.5002V51.9763C41.9231 50.7514 43.2692 49.5014 44.6154 49.5014H55.3846C56.7308 49.5014 58.0769 50.7514 58.0769 52.0013V69.5002C58.0769 70.1632 58.3606 70.799 58.8655 71.2678C59.3704 71.7366 60.0552 72 60.7692 72H82.3077C83.0217 72 83.7065 71.7366 84.2114 71.2678C84.7163 70.799 85 70.1632 85 69.5002V34.5024C85.0006 34.1739 84.9315 33.8485 84.7966 33.5448C84.6617 33.2411 84.4637 32.9651 84.2138 32.7325L76.9231 25.9679V9.50399C76.9231 8.84099 76.6394 8.20515 76.1345 7.73634C75.6296 7.26753 74.9448 7.00415 74.2308 7.00415H68.8461C68.1321 7.00415 67.4473 7.26753 66.9424 7.73634C66.4375 8.20515 66.1538 8.84099 66.1538 9.50399V15.9686L51.9062 2.73442C51.6561 2.50162 51.359 2.31692 51.0319 2.19089C50.7048 2.06487 50.3541 2 50 2C49.6459 2 49.2952 2.06487 48.9681 2.19089C48.641 2.31692 48.3439 2.50162 48.0938 2.73442L15.7862 32.7325C15.5363 32.9651 15.3383 33.2411 15.2034 33.5448C15.0685 33.8485 14.9994 34.1739 15 34.5024V69.5002C15 70.1632 15.2837 70.799 15.7886 71.2678C16.2935 71.7366 16.9783 72 17.6923 72H39.2308C39.9448 72 40.6296 71.7366 41.1345 71.2678C41.6394 70.799 41.9231 70.1632 41.9231 69.5002Z" fill="#1C1C1C"/>
<path d="M20.9754 80.8464L23.1642 80.9872C23.5738 80.0571 24.0986 79.592 24.7386 79.592C24.8581 79.592 24.9392 79.6475 24.9818 79.7584L24.9946 79.8096C24.4741 79.8096 24.0645 80.1893 23.7658 80.9488C24.6277 80.8123 25.2336 80.4453 25.5834 79.848C25.72 79.6091 25.7882 79.4171 25.7882 79.272C25.7882 78.9307 25.6688 78.76 25.4298 78.76C25.481 78.6149 25.5834 78.5424 25.737 78.5424C26.0272 78.5424 26.1722 78.7429 26.1722 79.144C26.1722 79.5365 26.0144 79.9205 25.6986 80.296C25.2378 80.8507 24.5552 81.1749 23.6506 81.2688C23.4629 81.8832 23.3093 82.6512 23.1898 83.5728C23.0704 84.4944 23.0021 85.0107 22.985 85.1216C23.3093 84.8912 23.8682 84.5115 24.6618 83.9824C25.4554 83.4533 25.9717 83.1077 26.2106 82.9456C26.5946 81.5547 27.0896 80.4027 27.6954 79.4896C28.3098 78.5765 28.9541 78.12 29.6282 78.12C29.8586 78.12 30.0378 78.1925 30.1658 78.3376C30.3024 78.4827 30.3706 78.6704 30.3706 78.9008C30.3706 79.5237 30.072 80.1595 29.4746 80.808C28.8773 81.4565 28.0453 82.1563 26.9786 82.9072C26.5946 84.4517 26.4026 85.9451 26.4026 87.3872C26.4026 88.6672 26.5861 89.6229 26.953 90.2544C27.2432 90.7493 27.6357 90.9968 28.1306 90.9968C28.0794 91.1675 27.96 91.2528 27.7722 91.2528C27.2005 91.2528 26.7397 91.0224 26.3898 90.5616C25.8608 89.8789 25.5962 88.7781 25.5962 87.2592C25.5962 86.0816 25.7498 84.8443 26.057 83.5472C24.1285 84.8272 23.0832 85.5227 22.921 85.6336C22.665 87.3488 22.3365 88.5179 21.9354 89.1408C21.5514 89.7211 21.065 90.0112 20.4762 90.0112C20.2032 90.0112 19.9856 89.9173 19.8234 89.7296C19.6613 89.5419 19.5802 89.2901 19.5802 88.9744C19.5802 88.1125 20.4037 87.0587 22.0506 85.8128C22.4176 83.5515 22.7461 82.0453 23.0362 81.2944L21.129 81.1536C20.0965 81.1536 19.3584 81.5461 18.9146 82.3312C18.7013 82.7237 18.5946 83.1163 18.5946 83.5088C18.5946 83.7136 18.6202 83.9141 18.6714 84.1104C18.8336 84.7163 19.1536 85.0192 19.6314 85.0192C19.6314 85.0875 19.5973 85.1515 19.529 85.2112C19.4693 85.2709 19.3882 85.3008 19.2858 85.3008C18.7397 85.3008 18.36 85.0192 18.1466 84.456C18.0528 84.2085 18.0058 83.9269 18.0058 83.6112C18.0058 83.2955 18.0954 82.9371 18.2746 82.536C18.6245 81.7339 19.2133 81.2133 20.041 80.9744C20.3312 80.8891 20.6426 80.8464 20.9754 80.8464ZM30.0378 78.888C30.0378 78.5637 29.9013 78.4016 29.6282 78.4016C29.1845 78.4016 28.7408 78.7643 28.297 79.4896C27.8618 80.2064 27.4821 81.1365 27.1578 82.28C28.0709 81.6144 28.7792 81.0085 29.2826 80.4624C29.7861 79.9077 30.0378 79.3829 30.0378 78.888ZM19.913 88.9872C19.913 89.4565 20.0922 89.6912 20.4506 89.6912C20.8176 89.6912 21.112 89.4053 21.3338 88.8336C21.5557 88.2619 21.7648 87.4256 21.961 86.3248C20.5957 87.3829 19.913 88.2704 19.913 88.9872ZM29.2007 87.3104C29.2007 88.2064 29.4396 88.6544 29.9174 88.6544C30.2417 88.6544 30.5446 88.4539 30.8262 88.0528C31.3638 87.3019 31.6924 86.312 31.8118 85.0832C31.5132 84.9552 31.3041 84.7461 31.1846 84.456C31.1078 84.2768 31.0694 84.1275 31.0694 84.008C31.0694 83.88 31.0865 83.7691 31.1207 83.6752C31.1974 83.4448 31.3382 83.3296 31.5431 83.3296C31.7479 83.3296 31.9014 83.4619 32.0038 83.7264C32.1148 83.9824 32.1702 84.3109 32.1702 84.712C32.1702 84.7376 32.1702 84.7675 32.1702 84.8016C32.2726 84.8357 32.422 84.8528 32.6182 84.8528C32.823 84.8528 33.0022 84.7717 33.1558 84.6096C33.3094 84.4475 33.3863 84.2981 33.3863 84.1616C33.3863 84.1275 33.4076 84.1061 33.4502 84.0976C33.4929 84.0805 33.5313 84.0805 33.5654 84.0976C33.6081 84.1147 33.6294 84.1403 33.6294 84.1744C33.6294 84.4219 33.5228 84.6565 33.3094 84.8784C33.1046 85.1003 32.8273 85.2112 32.4774 85.2112C32.3921 85.2112 32.2812 85.2027 32.1446 85.1856C32.0934 85.7659 31.9697 86.3419 31.7734 86.9136C31.5857 87.4768 31.3212 87.9675 30.9799 88.3856C30.6385 88.7952 30.2716 89 29.879 89C29.1366 89 28.6801 88.6032 28.5095 87.8096C28.4668 87.5792 28.4455 87.3445 28.4455 87.1056C28.4455 86.568 28.5692 85.992 28.8167 85.3776C29.1409 84.5755 29.542 84.0763 30.0199 83.88C30.2673 83.7947 30.438 83.7819 30.5318 83.8416C30.6257 83.9013 30.6854 83.9696 30.711 84.0464C30.3185 84.0464 29.9686 84.4133 29.6614 85.1472C29.3542 85.8811 29.2007 86.6021 29.2007 87.3104ZM33.5791 83.4064C33.5791 83.3125 33.6388 83.2656 33.7583 83.2656H34.4239C34.4666 83.0949 34.522 82.8816 34.5903 82.6256L34.7695 81.96C34.8207 81.7637 34.8634 81.5845 34.8975 81.4224C34.9402 81.2603 35.017 81.1792 35.1279 81.1792C35.273 81.1792 35.3754 81.2901 35.4351 81.512C35.4607 81.6059 35.4735 81.7211 35.4735 81.8576C35.4735 81.9941 35.4479 82.1691 35.3967 82.3824L35.1535 83.2656H35.9471C36.0239 83.2656 36.0751 83.2912 36.1007 83.3424C36.1348 83.3936 36.1348 83.4448 36.1007 83.496C36.0751 83.5387 36.0239 83.56 35.9471 83.56H35.0767C34.5476 85.5483 34.2831 86.9563 34.2831 87.784C34.2831 88.3899 34.4196 88.6928 34.6927 88.6928C34.9146 88.6928 35.226 88.3984 35.6271 87.8096C36.0282 87.2208 36.3738 86.632 36.6639 86.0432L37.0991 85.16H37.4447C37.3935 85.2624 37.3252 85.4032 37.2399 85.5824C37.1631 85.7531 37.0052 86.0645 36.7663 86.5168C36.5274 86.9605 36.297 87.3531 36.0751 87.6944C35.8618 88.0357 35.6186 88.3472 35.3455 88.6288C35.081 88.9019 34.8335 89.0384 34.6031 89.0384C34.3727 89.0384 34.1722 88.9659 34.0015 88.8208C33.8394 88.6672 33.737 88.4539 33.6943 88.1808C33.6431 87.8992 33.6175 87.6133 33.6175 87.3232C33.6175 86.6491 33.8564 85.3947 34.3343 83.56H33.7583C33.69 83.56 33.6431 83.5429 33.6175 83.5088C33.5919 83.4661 33.5791 83.432 33.5791 83.4064ZM37.4137 87.1312C37.4137 88.1637 37.7807 88.68 38.5145 88.68C38.7876 88.68 39.0735 88.5605 39.3721 88.3216C39.6793 88.0741 39.9567 87.7797 40.2041 87.4384C40.7503 86.6533 41.1343 86.0133 41.3561 85.5184L41.5226 85.16H41.8681C41.7231 85.5013 41.5097 85.9237 41.2281 86.4272C40.9465 86.9221 40.6777 87.3403 40.4217 87.6816C40.1657 88.0229 39.8628 88.3344 39.5129 88.616C39.1631 88.8891 38.8303 89.0256 38.5145 89.0256C37.2516 89.0256 36.6201 88.3173 36.6201 86.9008C36.6201 86.2437 36.8121 85.5867 37.1961 84.9296C37.7252 84.0165 38.378 83.56 39.1545 83.56C39.7007 83.56 39.9737 83.8587 39.9737 84.456C39.9737 84.8997 39.8031 85.3605 39.4618 85.8384C38.9839 86.4869 38.4249 86.8155 37.7849 86.824C37.6911 86.824 37.6313 86.7813 37.6057 86.696L37.5929 86.6448C38.0367 86.6448 38.4591 86.3547 38.8601 85.7744C39.2697 85.1856 39.4746 84.6949 39.4746 84.3024C39.4746 84.0379 39.3722 83.9056 39.1674 83.9056C38.7151 83.9056 38.2927 84.3024 37.9002 85.096C37.5759 85.7701 37.4137 86.4485 37.4137 87.1312ZM44.3188 80.9744C44.626 80.1723 44.7796 79.6261 44.7796 79.336C44.7796 79.0459 44.7071 78.8923 44.562 78.8752C44.161 78.8752 43.7428 79.5195 43.3076 80.808C42.881 82.088 42.5439 83.4192 42.2964 84.8016C42.0575 86.1755 41.938 87.1483 41.938 87.72C41.938 88.6843 42.177 89.1664 42.6548 89.1664C42.6548 89.2261 42.6164 89.2859 42.5396 89.3456C42.4628 89.4053 42.3732 89.4352 42.2708 89.4352C41.5711 89.4352 41.2212 88.808 41.2212 87.5536C41.2212 87.0928 41.3066 86.3888 41.4772 85.4416C41.6479 84.4859 41.8698 83.4875 42.1428 82.4464C42.4159 81.4053 42.77 80.5008 43.2052 79.7328C43.6404 78.9563 44.0842 78.568 44.5364 78.568C44.8948 78.568 45.074 78.7941 45.074 79.2464C45.074 79.5877 44.9674 80.0656 44.754 80.68C44.3444 81.8747 43.7556 83.0693 42.9876 84.264C42.7828 84.5797 42.5994 84.8357 42.4372 85.032C42.3946 85.0832 42.3732 85.0661 42.3732 84.9808C42.3647 84.8187 42.4031 84.6779 42.4884 84.5584C43.1882 83.5088 43.7983 82.3141 44.3188 80.9744ZM54.6242 80.04C54.7437 80.04 54.8205 80.0912 54.8546 80.1936L54.8802 80.2576C54.5133 80.2576 54.2402 80.4795 54.061 80.9232C53.8904 81.3584 53.7581 82.0027 53.6642 82.856C54.3896 82.9925 54.9442 83.4192 55.3282 84.136C55.8744 83.7861 56.2968 83.3168 56.5954 82.728C56.9026 82.1392 57.0562 81.5589 57.0562 80.9872C57.0562 80.4155 56.8386 79.9205 56.4034 79.5024C55.9768 79.0843 55.3624 78.8752 54.5602 78.8752C53.0157 78.8752 51.821 79.4256 50.9762 80.5264C50.3874 81.3029 50.093 82.1307 50.093 83.0096C50.093 83.8885 50.3192 84.4816 50.7714 84.7888C50.9592 84.9083 51.164 84.968 51.3858 84.968C51.3005 85.1643 51.1682 85.2624 50.989 85.2624C50.349 85.2624 49.901 84.9253 49.645 84.2512C49.517 83.9269 49.453 83.56 49.453 83.1504C49.453 82.7323 49.5469 82.2672 49.7346 81.7552C50.1272 80.6373 50.8354 79.7925 51.8594 79.2208C52.6445 78.7771 53.5448 78.5552 54.5602 78.5552C55.2856 78.5552 55.9 78.6704 56.4034 78.9008C56.9069 79.1312 57.2696 79.4256 57.4914 79.784C57.7304 80.1851 57.8498 80.616 57.8498 81.0768C57.8498 81.5291 57.7602 81.9643 57.581 82.3824C57.4104 82.8005 57.1416 83.2101 56.7746 83.6112C56.4162 84.0037 55.9938 84.3195 55.5074 84.5584C55.7208 85.1131 55.9128 86.1456 56.0834 87.656C56.1432 88.1424 56.2242 88.616 56.3266 89.0768C56.5485 90.0496 57.0221 90.536 57.7474 90.536C57.7304 90.6896 57.6194 90.7664 57.4146 90.7664C56.3736 90.7664 55.7421 90.2715 55.5202 89.2816C55.4093 88.8123 55.3368 88.3387 55.3026 87.8608C55.277 87.3829 55.2514 86.8411 55.2258 86.2352C55.2002 85.6208 55.1405 85.1259 55.0466 84.7504C54.5773 84.9211 54.0781 85.0064 53.549 85.0064H53.4338C53.1949 86.8581 52.7896 88.1253 52.2178 88.808C51.9874 89.0896 51.6845 89.3243 51.309 89.512C50.9421 89.6997 50.5325 89.7936 50.0802 89.7936C49.6365 89.7936 49.261 89.7168 48.9538 89.5632C48.6552 89.4096 48.4376 89.2133 48.301 88.9744C48.1133 88.6245 48.0194 88.3045 48.0194 88.0144C48.0194 87.7243 48.0621 87.4555 48.1474 87.208C48.2328 86.952 48.3565 86.7045 48.5186 86.4656C48.6808 86.2181 48.8941 86.0176 49.1586 85.864C49.4232 85.7104 49.709 85.6336 50.0162 85.6336C50.1869 85.6336 50.3064 85.6933 50.3746 85.8128L50.4002 85.8768C49.6578 85.8768 49.0904 86.1925 48.6978 86.824C48.476 87.1824 48.365 87.5493 48.365 87.9248C48.365 88.0955 48.3864 88.2704 48.429 88.4496C48.6168 89.1152 49.0861 89.448 49.837 89.448C50.1954 89.448 50.5154 89.3584 50.797 89.1792C51.0872 89 51.3218 88.7781 51.501 88.5136C51.6888 88.2491 51.8594 87.8992 52.013 87.464C52.2434 86.7899 52.4482 85.9237 52.6274 84.8656C52.3032 84.7547 52.0728 84.5968 51.9362 84.392C51.7997 84.1787 51.7314 84.0165 51.7314 83.9056C51.7314 83.7947 51.7314 83.7179 51.7314 83.6752C51.7741 83.4533 51.9021 83.2571 52.1154 83.0864C52.3373 82.9072 52.6232 82.8133 52.973 82.8048C53.084 82.2245 53.1992 81.7509 53.3186 81.384C53.4381 81.0085 53.6088 80.6928 53.8306 80.4368C54.0525 80.1723 54.317 80.04 54.6242 80.04ZM53.5362 84.6736C54.0141 84.6736 54.4792 84.5712 54.9314 84.3664C54.6754 83.6923 54.2445 83.2869 53.6386 83.1504L53.485 84.6736H53.5362ZM52.9218 83.0992C52.6146 83.1248 52.397 83.2187 52.269 83.3808C52.141 83.5344 52.077 83.6624 52.077 83.7648C52.077 84.1147 52.2776 84.3707 52.6786 84.5328C52.781 83.8843 52.8621 83.4064 52.9218 83.0992ZM58.6637 87.1312C58.6637 88.1637 59.0307 88.68 59.7645 88.68C60.0376 88.68 60.3235 88.5605 60.6221 88.3216C60.9293 88.0741 61.2067 87.7797 61.4541 87.4384C62.0003 86.6533 62.3843 86.0133 62.6061 85.5184L62.7726 85.16H63.1181C62.9731 85.5013 62.7597 85.9237 62.4781 86.4272C62.1965 86.9221 61.9277 87.3403 61.6717 87.6816C61.4157 88.0229 61.1128 88.3344 60.7629 88.616C60.4131 88.8891 60.0803 89.0256 59.7645 89.0256C58.5016 89.0256 57.8701 88.3173 57.8701 86.9008C57.8701 86.2437 58.0621 85.5867 58.4461 84.9296C58.9752 84.0165 59.628 83.56 60.4045 83.56C60.9507 83.56 61.2237 83.8587 61.2237 84.456C61.2237 84.8997 61.0531 85.3605 60.7118 85.8384C60.2339 86.4869 59.6749 86.8155 59.0349 86.824C58.9411 86.824 58.8813 86.7813 58.8557 86.696L58.8429 86.6448C59.2867 86.6448 59.7091 86.3547 60.1101 85.7744C60.5197 85.1856 60.7246 84.6949 60.7246 84.3024C60.7246 84.0379 60.6222 83.9056 60.4174 83.9056C59.9651 83.9056 59.5427 84.3024 59.1502 85.096C58.8259 85.7701 58.6637 86.4485 58.6637 87.1312ZM65.3896 83.3296C65.7566 83.3296 65.94 83.6837 65.94 84.392C65.94 84.52 65.9315 84.6523 65.9144 84.7888C66.0595 84.8315 66.2259 84.8528 66.4136 84.8528C66.6014 84.8528 66.772 84.7717 66.9256 84.6096C67.0792 84.4475 67.156 84.2981 67.156 84.1616C67.156 84.1275 67.1774 84.1061 67.22 84.0976C67.2627 84.0805 67.3011 84.0805 67.3352 84.0976C67.3779 84.1147 67.3992 84.1403 67.3992 84.1744C67.3992 84.4219 67.2926 84.6565 67.0792 84.8784C66.8744 85.1003 66.5971 85.2112 66.2472 85.2112C66.1107 85.2112 65.987 85.1984 65.876 85.1728C65.6542 86.5381 65.2104 87.6091 64.5448 88.3856C64.195 88.7952 63.8536 89 63.5208 89C62.9064 89 62.531 88.7952 62.3944 88.3856C62.3176 88.1637 62.2792 87.9291 62.2792 87.6816C62.2792 87.4341 62.3134 87.1397 62.3816 86.7984C62.4926 86.2437 62.723 85.352 63.0728 84.1232C63.124 83.944 63.2051 83.8544 63.316 83.8544C63.4696 83.8544 63.5806 83.9653 63.6488 84.1872C63.683 84.2811 63.7 84.4005 63.7 84.5456C63.7 84.6821 63.6744 84.8485 63.6232 85.0448C63.299 86.2651 63.1155 87.0032 63.0728 87.2592C63.0302 87.5067 63.0088 87.72 63.0088 87.8992C63.0088 88.4027 63.1667 88.6544 63.4824 88.6544C63.9432 88.6544 64.3699 88.2704 64.7624 87.5024C65.1635 86.7344 65.4366 85.9195 65.5816 85.0576C65.3256 84.9211 65.155 84.7419 65.0696 84.52C64.9928 84.2896 64.9544 84.1147 64.9544 83.9952C64.9544 83.8672 64.9715 83.7563 65.0056 83.6624C65.0739 83.4405 65.2019 83.3296 65.3896 83.3296ZM68.7758 81.3328C68.9721 81.3328 69.0702 81.4651 69.0702 81.7296C69.0702 81.9941 68.9422 82.2075 68.6862 82.3696C68.5582 82.4549 68.4473 82.4976 68.3535 82.4976C68.2169 82.4976 68.1358 82.4549 68.1102 82.3696L68.0974 82.3312C68.1742 82.3312 68.2297 82.2501 68.2638 82.088C68.298 81.9173 68.3492 81.7509 68.4174 81.5888C68.4942 81.4181 68.6137 81.3328 68.7758 81.3328ZM67.9566 88.6928C68.1785 88.6928 68.49 88.3984 68.891 87.8096C69.2921 87.2208 69.6377 86.632 69.9279 86.0432L70.363 85.16H70.7086C70.6574 85.2624 70.5892 85.4032 70.5038 85.5824C70.427 85.7531 70.2692 86.0645 70.0302 86.5168C69.7913 86.9605 69.5609 87.3531 69.339 87.6944C69.1257 88.0357 68.8825 88.3472 68.6094 88.6288C68.3449 88.9019 68.1145 89.0384 67.9182 89.0384C67.2868 89.0384 66.9711 88.6288 66.9711 87.8096C66.9711 87.1952 67.146 86.1968 67.4958 84.8144C67.53 84.6693 67.5556 84.5584 67.5727 84.4816C67.5982 84.4048 67.6238 84.3067 67.6494 84.1872C67.675 84.0592 67.7006 83.944 67.7262 83.8416C67.7689 83.6624 67.8457 83.5728 67.9566 83.5728C68.1102 83.5728 68.2212 83.6837 68.2894 83.9056C68.3236 84.008 68.3406 84.1317 68.3406 84.2768C68.3406 84.4219 68.3236 84.5755 68.2894 84.7376C68.2553 84.8912 68.1998 85.1216 68.123 85.4288C68.0462 85.736 67.9865 85.9877 67.9438 86.184C67.9012 86.3803 67.8542 86.6192 67.803 86.9008C67.7092 87.3701 67.6622 87.7883 67.6622 88.1552C67.6622 88.5136 67.7604 88.6928 67.9566 88.6928ZM70.6637 87.1312C70.6637 88.1637 71.0307 88.68 71.7645 88.68C72.0376 88.68 72.3235 88.5605 72.6221 88.3216C72.9293 88.0741 73.2067 87.7797 73.4541 87.4384C74.0003 86.6533 74.3843 86.0133 74.6061 85.5184L74.7726 85.16H75.1181C74.9731 85.5013 74.7597 85.9237 74.4781 86.4272C74.1965 86.9221 73.9277 87.3403 73.6717 87.6816C73.4157 88.0229 73.1128 88.3344 72.7629 88.616C72.4131 88.8891 72.0803 89.0256 71.7645 89.0256C70.5016 89.0256 69.8701 88.3173 69.8701 86.9008C69.8701 86.2437 70.0621 85.5867 70.4461 84.9296C70.9752 84.0165 71.628 83.56 72.4045 83.56C72.9507 83.56 73.2237 83.8587 73.2237 84.456C73.2237 84.8997 73.0531 85.3605 72.7118 85.8384C72.2339 86.4869 71.6749 86.8155 71.0349 86.824C70.9411 86.824 70.8813 86.7813 70.8557 86.696L70.8429 86.6448C71.2867 86.6448 71.7091 86.3547 72.1101 85.7744C72.5197 85.1856 72.7246 84.6949 72.7246 84.3024C72.7246 84.0379 72.6222 83.9056 72.4174 83.9056C71.9651 83.9056 71.5427 84.3024 71.1502 85.096C70.8259 85.7701 70.6637 86.4485 70.6637 87.1312ZM78.3112 88.6544C78.627 88.6544 78.9299 88.4539 79.22 88.0528C79.7406 87.3189 80.0904 86.3291 80.2696 85.0832C79.9966 84.9467 79.8131 84.7632 79.7192 84.5328C79.6339 84.3024 79.5912 84.1232 79.5912 83.9952C79.5912 83.5515 79.7363 83.3296 80.0264 83.3296C80.3848 83.3296 80.564 83.7264 80.564 84.52C80.564 84.6053 80.564 84.6949 80.564 84.7888C80.692 84.8315 80.8499 84.8528 81.0376 84.8528C81.2339 84.8528 81.4088 84.7717 81.5624 84.6096C81.716 84.4475 81.7928 84.2981 81.7928 84.1616C81.7928 84.1275 81.8099 84.1061 81.844 84.0976C81.8867 84.0805 81.9294 84.0805 81.972 84.0976C82.0147 84.1147 82.036 84.1403 82.036 84.1744C82.036 84.4219 81.9294 84.6565 81.716 84.8784C81.5112 85.1003 81.2339 85.2112 80.884 85.2112C80.756 85.2112 80.6408 85.1984 80.5384 85.1728C80.3848 86.5211 79.988 87.592 79.348 88.3856C79.0152 88.7952 78.6611 89 78.2856 89C77.6883 89 77.2872 88.6843 77.0824 88.0528C76.579 88.6843 76.0968 89 75.636 89C74.9875 89 74.5864 88.7781 74.4328 88.3344C74.3475 88.0955 74.3048 87.8395 74.3048 87.5664C74.3048 87.2933 74.3347 86.9904 74.3944 86.6576C74.5224 86.0261 74.7699 85.0832 75.1368 83.8288C75.188 83.6496 75.2691 83.56 75.38 83.56C75.5336 83.56 75.6446 83.6667 75.7128 83.88C75.747 83.9824 75.764 84.1061 75.764 84.2512C75.764 84.3877 75.7427 84.5328 75.7 84.6864C75.6574 84.84 75.6062 85.0277 75.5464 85.2496C75.4867 85.4715 75.4355 85.6592 75.3928 85.8128C75.3502 85.9664 75.299 86.1541 75.2392 86.376C75.188 86.5979 75.1454 86.7899 75.1112 86.952C75.0856 87.1141 75.06 87.2891 75.0344 87.4768C75.0174 87.6645 75.0174 87.8267 75.0344 87.9632C75.0515 88.0912 75.0814 88.2107 75.124 88.3216C75.2094 88.5435 75.3886 88.6544 75.6616 88.6544C76.0712 88.6544 76.5107 88.3173 76.98 87.6432C76.9459 87.4384 76.9288 87.2293 76.9288 87.016C76.9288 86.4443 77.0355 85.8341 77.2488 85.1856C77.5475 84.2981 77.8504 83.8544 78.1576 83.8544C78.4051 83.8544 78.5288 84.0464 78.5288 84.4304C78.5288 84.584 78.5075 84.7632 78.4648 84.968C78.3368 85.6933 78.0552 86.4443 77.62 87.2208C77.6968 88.1765 77.9272 88.6544 78.3112 88.6544ZM77.6072 86.568C77.7864 86.2011 77.9358 85.8384 78.0552 85.48C78.1747 85.1216 78.2387 84.8827 78.2472 84.7632C78.2643 84.6352 78.2728 84.5285 78.2728 84.4432C78.2728 84.3579 78.2387 84.3067 78.1704 84.2896C78.0254 84.2896 77.8974 84.5285 77.7864 85.0064C77.6755 85.4757 77.6158 85.9963 77.6072 86.568Z" fill="black"/>
</svg>
