<svg width="34" height="34" viewBox="0 0 34 34" fill="none" xmlns="http://www.w3.org/2000/svg">
<path fill-rule="evenodd" clip-rule="evenodd" d="M17 0C7.61033 0 0 7.61175 0 17C0 26.3882 7.61033 34 17 34C26.3882 34 34 26.3882 34 17C34 7.61175 26.3882 0 17 0ZM17.1983 26.9422C11.7187 26.9422 7.28167 22.4938 7.28167 17C7.28167 11.5062 11.7187 7.05783 17.1983 7.05783C19.8758 7.05783 22.1142 8.04525 23.8312 9.64892L21.0347 12.4511V12.4454C19.9934 11.4509 18.6731 10.9409 17.1983 10.9409C13.9258 10.9409 11.2667 13.7119 11.2667 16.9943C11.2667 20.2739 13.9258 23.0534 17.1983 23.0534C20.1677 23.0534 22.1878 21.3506 22.6043 19.0131H17.1983V15.1357H26.5271C26.6517 15.8015 26.7183 16.4957 26.7183 17.2238C26.7183 22.9047 22.9259 26.9422 17.1983 26.9422V26.9422Z" fill="#FF3A00"/>
</svg>
